<svg width="100" height="45" viewBox="0 0 100 45" fill="none" xmlns="http://www.w3.org/2000/svg">
<path d="M51.1995 18.0997C51.1995 17.5299 51.4929 17.245 52.0855 17.245H57.2821V18.6097H52.755V21.4387H57.0941V22.8034H52.755V25.8376H57.2679V27.2023H51.2023V18.0997H51.1995Z" fill="#0000BF"/>
<path d="M58.6154 27.1994V20.4957C58.7408 20.4188 58.8946 20.3333 59.0798 20.2422C59.265 20.151 59.473 20.0627 59.7038 19.98C59.9374 19.8974 60.1909 19.8291 60.473 19.7778C60.755 19.7236 61.0542 19.698 61.3733 19.698C62.2052 19.698 62.8491 19.8433 63.3049 20.1339L62.7693 21.2365C62.5271 21.1111 62.3106 21.0313 62.1226 20.9971C61.9345 20.963 61.7123 20.9459 61.4616 20.9459C61.1795 20.9459 60.9317 20.9715 60.7152 21.0256C60.4986 21.0798 60.2964 21.1595 60.1112 21.2649V27.2023H58.6154V27.1994Z" fill="#0000BF"/>
<path d="M64.2023 27.1994V16.6638H65.6981V20.6125C65.9801 20.2735 66.2935 20.037 66.6411 19.9003C66.9915 19.7635 67.4103 19.698 67.9032 19.698C68.2906 19.698 68.6468 19.7578 68.9687 19.8718C69.2935 19.9886 69.5755 20.1681 69.8177 20.4074C70.0599 20.6496 70.2479 20.9487 70.3847 21.3077C70.5214 21.6667 70.5869 22.0855 70.5869 22.5698V27.1994H69.0912V22.8889C69.0912 22.2393 68.9744 21.755 68.7436 21.4302C68.51 21.1054 68.114 20.943 67.5528 20.943C66.963 20.943 66.5043 21.1311 66.1795 21.51C65.8547 21.886 65.6924 22.396 65.6924 23.0342V27.1994H64.2023Z" fill="#0000BF"/>
<path d="M74.171 27.2279C73.9374 26.7351 73.6838 26.1624 73.4132 25.5157C73.1397 24.8661 72.869 24.208 72.5955 23.5356C72.3249 22.8633 72.0656 22.208 71.8234 21.5698C71.5813 20.9316 71.3761 20.3789 71.2109 19.9146H72.8206C72.9659 20.3789 73.134 20.8861 73.322 21.4388C73.5129 21.9886 73.7066 22.5385 73.9032 23.0798C74.1026 23.6211 74.2935 24.1396 74.4787 24.6325C74.6639 25.1254 74.8291 25.5385 74.9744 25.8661C75.0827 25.6439 75.2251 25.2878 75.4103 24.8006C75.5955 24.3106 75.7921 23.7778 76.0001 23.1966C76.2081 22.6154 76.4189 22.0342 76.6326 21.4473C76.8462 20.8633 77.0314 20.3504 77.1853 19.9174H78.681C78.5927 20.1994 78.4759 20.5385 78.3249 20.9402C78.1739 21.3419 78.0115 21.7721 77.8377 22.2308C77.661 22.6895 77.4759 23.1653 77.2764 23.6524C77.077 24.1396 76.8833 24.6069 76.6952 25.0541C76.5072 25.4986 76.3249 25.9117 76.1568 26.2963C75.9887 26.6781 75.8377 26.9915 75.7123 27.2336H74.171V27.2279Z" fill="#0000BF"/>
<path d="M82.6781 27.4331C82.1852 27.4331 81.7208 27.3562 81.2849 27.1995C80.849 27.0456 80.4701 26.812 80.1453 26.5015C79.8205 26.1909 79.5669 25.8035 79.3818 25.3334C79.1966 24.8633 79.1054 24.3134 79.1054 23.6866C79.1054 23.077 79.1937 22.5271 79.3732 22.0314C79.5527 21.5385 79.7977 21.1168 80.114 20.7693C80.4273 20.4217 80.8006 20.1539 81.2308 19.9715C81.661 19.7864 82.1225 19.6952 82.6182 19.6952C83.0826 19.6952 83.4986 19.7636 83.8661 19.8975C84.2336 20.0342 84.547 20.2251 84.8091 20.4701C85.0712 20.7151 85.2678 21.0086 85.4046 21.3476C85.5413 21.6866 85.6068 22.0599 85.6068 22.4644C85.6068 23.0257 85.4615 23.4644 85.1709 23.7835C84.8803 24.1026 84.396 24.2621 83.7179 24.2621H80.641C80.7293 24.9003 80.9573 25.3818 81.3305 25.7066C81.7037 26.0314 82.208 26.1938 82.8461 26.1938C83.5698 26.1938 84.1966 26.0399 84.7179 25.7294L85.2393 26.7892C84.9202 26.9829 84.5555 27.1368 84.1424 27.2536C83.7407 27.3733 83.2507 27.4331 82.6781 27.4331ZM80.6182 23.208H83.2735C83.604 23.208 83.8376 23.1453 83.9772 23.02C84.1168 22.8946 84.188 22.661 84.188 22.3248C84.188 22.1425 84.1567 21.9573 84.094 21.7721C84.0313 21.5869 83.9345 21.4245 83.8034 21.2792C83.6724 21.1339 83.5071 21.0143 83.3105 20.9231C83.114 20.8319 82.8718 20.7835 82.5926 20.7835C82.2735 20.7835 81.9914 20.8547 81.7493 20.9943C81.5071 21.1339 81.302 21.3163 81.1311 21.5385C80.963 21.7607 80.8348 22.02 80.7464 22.3163C80.661 22.6097 80.6182 22.9089 80.6182 23.208Z" fill="#0000BF"/>
<path d="M86.9745 27.1994V20.4957C87.0998 20.4188 87.2565 20.3333 87.4388 20.2422C87.624 20.151 87.832 20.0627 88.0628 19.98C88.2964 19.8974 88.55 19.8291 88.832 19.7778C89.1141 19.7236 89.4132 19.698 89.7323 19.698C90.5642 19.698 91.2081 19.8433 91.6611 20.1339L91.1255 21.2365C90.8833 21.1111 90.6668 21.0313 90.4787 20.9971C90.2907 20.963 90.0713 20.9459 89.8178 20.9459C89.5357 20.9459 89.2878 20.9715 89.0713 21.0256C88.8548 21.0798 88.6525 21.1595 88.4673 21.2649V27.2023H86.9745V27.1994Z" fill="#0000BF"/>
<path d="M95.057 27.2279C94.8234 26.7351 94.5698 26.1624 94.2992 25.5157C94.0285 24.869 93.755 24.208 93.4843 23.5356C93.2108 22.8633 92.9544 22.208 92.7123 21.5698C92.4701 20.9316 92.265 20.3789 92.0997 19.9146H93.7094C93.8547 20.3789 94.0228 20.8861 94.2108 21.4388C94.4017 21.9886 94.5955 22.5385 94.792 23.0798C94.9915 23.6211 95.1824 24.1396 95.3675 24.6325C95.5527 25.1254 95.718 25.5385 95.8633 25.8661C95.9715 25.6439 96.114 25.2878 96.2992 24.8006C96.4843 24.3106 96.6809 23.7778 96.8889 23.1966C97.0969 22.6154 97.3077 22.0342 97.5214 21.4473C97.7351 20.8633 97.9202 20.3504 98.0741 19.9174H99.5698C99.4815 20.1994 99.3647 20.5385 99.2137 20.9402C99.0627 21.3419 98.9003 21.7721 98.7265 22.2308C98.5499 22.6895 98.3647 23.1653 98.1653 23.6524C97.9658 24.1396 97.7721 24.6069 97.5841 25.0541C97.396 25.4986 97.2137 25.9117 97.0456 26.2963C96.8775 26.6781 96.7265 26.9915 96.6012 27.2336H95.057V27.2279Z" fill="#0000BF"/>
<path d="M0.00284961 22.1225C0.0170946 19.151 0.612535 16.3162 1.68376 13.7265C2.04558 12.8519 2.89174 12.2764 3.83761 12.2764H9.95157C11.2365 12.2764 12.2764 11.2365 12.2764 9.95157V3.83761C12.2764 2.89174 12.8519 2.04558 13.7265 1.68376C16.3162 0.612537 18.7607 0.111111 22.1225 0H22.2222C34.4957 0 44.4444 9.94872 44.4444 22.2222C44.4444 34.4957 34.4957 44.4444 22.2222 44.4444C9.94872 44.4444 0 34.4957 0 22.2222L0.00284961 22.1225Z" fill="#0000BF"/>
<path d="M21.4872 17.245H19.9117C19.661 17.245 19.4559 17.4501 19.4559 17.7008V18.7721C19.4559 19.0228 19.2508 19.2279 19.0001 19.2279H17.9288C17.6781 19.2279 17.473 19.433 17.473 19.6837V26.7293C17.473 26.98 17.6781 27.1852 17.9288 27.1852H21.4872C25.0086 27.1852 26.6781 25.0769 26.6781 22.2165C26.6781 19.3533 25.0086 17.245 21.4872 17.245ZM21.1767 25.5356H20.7209C20.4701 25.5356 20.265 25.3305 20.265 25.0798V19.4786C20.265 19.2279 20.4701 19.0228 20.7209 19.0228H21.1767C22.9003 19.0228 23.9117 20.2706 23.9117 22.2792C23.9146 24.2906 22.9032 25.5356 21.1767 25.5356Z" fill="white"/>
<path d="M16.1938 17.245H9.06842C8.8177 17.245 8.61258 17.4501 8.61258 17.7008V18.4786C8.61258 18.7293 8.8177 18.9345 9.06842 18.9345H10.7123C10.963 18.9345 11.1681 19.1396 11.1681 19.3903V26.7293C11.1681 26.98 11.3733 27.1852 11.624 27.1852H13.6439C13.8946 27.1852 14.0998 26.98 14.0998 26.7293V19.3903C14.0998 19.1396 14.3049 18.9345 14.5556 18.9345H16.1938C16.4445 18.9345 16.6496 18.7293 16.6496 18.4786V17.7008C16.6496 17.4473 16.4445 17.245 16.1938 17.245Z" fill="white"/>
<path d="M35.3419 25.3419L35.0371 25.3675C34.7778 25.3932 34.3932 25.4188 34.0513 25.4188C32.3362 25.4188 31.0941 24.2792 31.0941 22.2194C31.0941 19.7863 32.7436 18.8575 34.5414 18.9858C34.5414 18.9858 34.7151 19 34.7579 19.0085C35.0114 19.0427 35.2422 18.8632 35.2679 18.6097C35.2793 18.49 35.2878 18.3761 35.2878 18.2963V17.9886C35.2878 17.7607 35.2508 17.584 35.1254 17.4501C35.0228 17.3447 34.8576 17.2678 34.6439 17.2365C34.3733 17.1994 34.0029 17.1681 33.3533 17.1681C29.8519 17.1681 28.1596 19.5584 28.1596 22.2251C28.1596 24.8946 29.8491 27.282 33.3533 27.282C34.0456 27.282 34.4929 27.245 34.8918 27.188C35.1283 27.1538 35.322 27.1026 35.473 26.9743C35.624 26.8461 35.6838 26.7265 35.7208 26.5214L35.8063 26.0256L35.832 25.8775C35.8804 25.5783 35.6382 25.3162 35.3419 25.3419Z" fill="white"/>
</svg>
